<svg xmlns="http://www.w3.org/2000/svg" xmlns:xlink="http://www.w3.org/1999/xlink" viewBox="0 0 64 64">
  <defs>
    <style>
      .cls-1 {
        clip-path: url(#clip-Picto_reconnaissance_faciale);
      }

      .cls-2 {
        fill: #fff;
      }
    </style>
    <clipPath id="clip-Picto_reconnaissance_faciale">
      <rect width="64" height="64"/>
    </clipPath>
  </defs>
  <g id="Picto_reconnaissance_faciale" class="cls-1">
    <rect class="cls-2" width="64" height="64"/>
    <g id="Groupe_19" data-name="Groupe 19" transform="translate(14 7)">
      <g id="Groupe_16" data-name="Groupe 16">
        <path id="Tracé_3" data-name="Tracé 3" d="M18.2,49.9a10.366,10.366,0,0,1-7.4-3.1L3.1,39.1A10.366,10.366,0,0,1,0,31.7V10.5A10.5,10.5,0,0,1,10.5,0H25.9A10.5,10.5,0,0,1,36.4,10.5V31.8a10.366,10.366,0,0,1-3.1,7.4l-7.7,7.7A10.7,10.7,0,0,1,18.2,49.9ZM10.5,4.8a5.591,5.591,0,0,0-5.6,5.6V31.7a5.946,5.946,0,0,0,1.6,4l7.7,7.7a5.507,5.507,0,0,0,4,1.6,5.946,5.946,0,0,0,4-1.6l7.7-7.7a5.507,5.507,0,0,0,1.6-4V10.5a5.591,5.591,0,0,0-5.6-5.6H10.5Z"/>
      </g>
      <g id="Groupe_17" data-name="Groupe 17">
        <path id="Tracé_4" data-name="Tracé 4" d="M16,33.7H11.9V28.9h4V18a4.7,4.7,0,0,1,4.7-4.7h6.9v4.8H20.8V29A4.847,4.847,0,0,1,16,33.7Z"/>
      </g>
      <g id="Groupe_18" data-name="Groupe 18">
        <circle id="Ellipse_10" data-name="Ellipse 10" cx="2.9" cy="2.9" r="2.9" transform="translate(9 12.8)"/>
      </g>
    </g>
  </g>
</svg>
