<svg xmlns="http://www.w3.org/2000/svg" xmlns:xlink="http://www.w3.org/1999/xlink" viewBox="0 0 64 64">
  <defs>
    <style>
      .cls-1 {
        clip-path: url(#clip-Picto_reconnaissance_gestuelle);
      }

      .cls-2 {
        fill: #fff;
      }
    </style>
    <clipPath id="clip-Picto_reconnaissance_gestuelle">
      <rect width="64" height="64"/>
    </clipPath>
  </defs>
  <g id="Picto_reconnaissance_gestuelle" class="cls-1">
    <rect class="cls-2" width="64" height="64"/>
    <g id="Groupe_37" data-name="Groupe 37" transform="translate(13.952 3)">
      <g id="Groupe_25" data-name="Groupe 25">
        <g id="Groupe_23" data-name="Groupe 23">
          <path id="Tracé_6" data-name="Tracé 6" class="cls-2" d="M15,57.2a11.032,11.032,0,0,1-11-11V37.4a11.032,11.032,0,0,1,11-11h5.6a11.032,11.032,0,0,1,11,11v8.8a11.032,11.032,0,0,1-11,11Z"/>
        </g>
        <g id="Groupe_24" data-name="Groupe 24">
          <path id="Tracé_7" data-name="Tracé 7" d="M20.6,28A9.389,9.389,0,0,1,30,37.4v8.8a9.389,9.389,0,0,1-9.4,9.4H15a9.389,9.389,0,0,1-9.4-9.4V37.4A9.389,9.389,0,0,1,15,28h5.6m0-3.2H15A12.718,12.718,0,0,0,2.3,37.5v8.8A12.718,12.718,0,0,0,15,59h5.6A12.718,12.718,0,0,0,33.3,46.3V37.5A12.654,12.654,0,0,0,20.6,24.8Z"/>
        </g>
      </g>
      <g id="Groupe_26" data-name="Groupe 26">
        <path id="Tracé_8" data-name="Tracé 8" class="cls-2" d="M7.9,29.8V6.9a3.372,3.372,0,0,1,3.4-3.4h0a3.372,3.372,0,0,1,3.4,3.4V29.8"/>
        <path id="Tracé_9" data-name="Tracé 9" d="M16.3,29.8H13.1V6.9a1.8,1.8,0,0,0-3.6,0V29.8H6.3V6.9a5,5,0,1,1,10,0Z"/>
      </g>
      <g id="Groupe_27" data-name="Groupe 27">
        <path id="Tracé_10" data-name="Tracé 10" class="cls-2" d="M14.4,29.9V5a3.372,3.372,0,0,1,3.4-3.4h0A3.372,3.372,0,0,1,21.2,5V29.9"/>
        <path id="Tracé_11" data-name="Tracé 11" d="M22.8,29.9H19.6V5A1.8,1.8,0,1,0,16,5V29.9H12.8V5a5,5,0,1,1,10,0Z"/>
      </g>
      <g id="Groupe_30" data-name="Groupe 30">
        <g id="Groupe_28" data-name="Groupe 28">
          <path id="Tracé_12" data-name="Tracé 12" class="cls-2" d="M24.5,35.2a3.329,3.329,0,0,1-3.3-3.3V25.1a3.3,3.3,0,0,1,6.6,0v6.8A3.4,3.4,0,0,1,24.5,35.2Z"/>
        </g>
        <g id="Groupe_29" data-name="Groupe 29">
          <path id="Tracé_13" data-name="Tracé 13" d="M24.5,23.5a1.58,1.58,0,0,1,1.6,1.6v6.8a1.6,1.6,0,0,1-3.2,0V25.1a1.522,1.522,0,0,1,1.6-1.6m0-3.3h0a4.908,4.908,0,0,0-4.9,4.9v6.8a4.908,4.908,0,0,0,4.9,4.9h0a4.908,4.908,0,0,0,4.9-4.9V25.1a4.974,4.974,0,0,0-4.9-4.9Z"/>
        </g>
      </g>
      <g id="Groupe_33" data-name="Groupe 33">
        <g id="Groupe_31" data-name="Groupe 31">
          <path id="Tracé_14" data-name="Tracé 14" class="cls-2" d="M31.1,41.6a3.329,3.329,0,0,1-3.3-3.3V31.5a3.3,3.3,0,0,1,6.6,0v6.8A3.329,3.329,0,0,1,31.1,41.6Z"/>
        </g>
        <g id="Groupe_32" data-name="Groupe 32">
          <path id="Tracé_15" data-name="Tracé 15" d="M31.1,29.9a1.58,1.58,0,0,1,1.6,1.6v6.8a1.6,1.6,0,0,1-3.2,0V31.5a1.58,1.58,0,0,1,1.6-1.6m0-3.2h0a4.908,4.908,0,0,0-4.9,4.9v6.8a4.908,4.908,0,0,0,4.9,4.9h0A4.908,4.908,0,0,0,36,38.4V31.6a4.845,4.845,0,0,0-4.9-4.9Z"/>
        </g>
      </g>
      <g id="Groupe_36" data-name="Groupe 36">
        <g id="Groupe_34" data-name="Groupe 34">
          <path id="Tracé_16" data-name="Tracé 16" class="cls-2" d="M4.9,49.4a5.019,5.019,0,0,1-1.2-.2,3.321,3.321,0,0,1-1.8-1.7,3.107,3.107,0,0,1,0-2.5c.2-.4.3-.8.5-1.2a12.2,12.2,0,0,1,.7-1.7c.1-.3.3-.7.4-1a11.344,11.344,0,0,1,2.2-3.9,14.27,14.27,0,0,1,4.4-2.4l7.6-3.2a2.768,2.768,0,0,1,1.3-.3,3.275,3.275,0,0,1,3,2,3.107,3.107,0,0,1,0,2.5,3.321,3.321,0,0,1-1.7,1.8l-10,4.3L8.1,47.4a3.8,3.8,0,0,1-3.2,2Z"/>
        </g>
        <g id="Groupe_35" data-name="Groupe 35">
          <path id="Tracé_17" data-name="Tracé 17" d="M18.8,32.9a1.539,1.539,0,0,1,1.5,1,1.483,1.483,0,0,1,0,1.3,1.962,1.962,0,0,1-.9.9l-9.4,4-1.2.5-.5,1.2-2,4.9a1.751,1.751,0,0,1-1.5,1,1.268,1.268,0,0,1-.6-.1,1.962,1.962,0,0,1-.9-.9,1.483,1.483,0,0,1,0-1.3c.2-.4.3-.8.5-1.2.2-.6.4-1.1.6-1.6.1-.3.3-.7.4-1a8.608,8.608,0,0,1,1.8-3.3,13.11,13.11,0,0,1,3.9-2.1c.2-.1.3-.1.5-.2l3.5-1.5L18,33c.4,0,.6-.1.8-.1m0-3.2a4.333,4.333,0,0,0-1.9.4c-2.4,1-4.7,2-7.1,3A18.275,18.275,0,0,0,4.5,36c-1.6,1.4-2.2,3.5-3,5.5-.4.9-.7,1.9-1.1,2.8a4.826,4.826,0,0,0,2.7,6.3,3.661,3.661,0,0,0,1.8.4,4.853,4.853,0,0,0,4.5-3.1l2-4.9,9.4-4a4.927,4.927,0,0,0,2.6-6.4,5.179,5.179,0,0,0-4.6-2.9Z"/>
        </g>
      </g>
    </g>
  </g>
</svg>
