<svg xmlns="http://www.w3.org/2000/svg" viewBox="0 0 32.6 18.195">
  <g id="picto_eye_tracking" transform="translate(0 -0.003)">
    <g id="Groupe_13" data-name="Groupe 13">
      <path id="Tracé_2" data-name="Tracé 2" d="M0,9A29.134,29.134,0,0,1,4.3,4.7a20.914,20.914,0,0,1,5.9-3.5A15.353,15.353,0,0,1,17.8.1a18.282,18.282,0,0,1,7.9,2.8,25.566,25.566,0,0,1,6.7,6c.1.1.1.2.2.3-.4.5-.8.9-1.2,1.4a25.909,25.909,0,0,1-7.2,5.6A17.175,17.175,0,0,1,18,18.1,15.973,15.973,0,0,1,10.2,17a23.518,23.518,0,0,1-8.7-6.2A17.383,17.383,0,0,1,.2,9.3C.1,9.2.1,9.1,0,9Zm20.4,5.2c2.3-.6,6.7-3.4,7.9-5.1C26.9,7.3,21.9,4,20.4,4A6.553,6.553,0,0,1,20.4,14.2ZM4.3,9c1.4,1.8,5.9,4.8,7.9,5.1A6.639,6.639,0,0,1,9.7,9a6.347,6.347,0,0,1,2.5-5.1A21.5,21.5,0,0,0,4.3,9Zm12,2.2a2.2,2.2,0,0,0,2.2-2.1A2.2,2.2,0,0,0,14.1,9,2.218,2.218,0,0,0,16.3,11.2Z"/>
    </g>
  </g>
</svg>
