<svg xmlns="http://www.w3.org/2000/svg" viewBox="0 0 43.387 35.868">
  <path id="picto_timeline" d="M22.9,21.4a3.872,3.872,0,0,0,.3,2.6,3.535,3.535,0,0,0,2,1.6,4.526,4.526,0,0,0,5.6-3.1,5.72,5.72,0,0,0-.5-4.6,5.915,5.915,0,0,0-3.6-2.8A7.888,7.888,0,0,0,17,20.5a9.927,9.927,0,0,0,1,7.7A10.129,10.129,0,0,0,24.1,33a13,13,0,0,0,16-9,16.769,16.769,0,0,0-1.5-12.6,15.977,15.977,0,0,0-10-7.8,20.935,20.935,0,0,0-26,14.5A1.328,1.328,0,0,1,1,19a1.328,1.328,0,0,1-.9-1.6A23.743,23.743,0,0,1,29.3.9a19.717,19.717,0,0,1,11.6,9,18.65,18.65,0,0,1,1.8,14.6A15.6,15.6,0,0,1,27.6,35.9a15.225,15.225,0,0,1-4.2-.6,12.092,12.092,0,0,1-7.7-6.1,13.119,13.119,0,0,1-1.2-9.7,10.47,10.47,0,0,1,12.9-7.3,8.543,8.543,0,0,1,5.2,4.1,8.928,8.928,0,0,1,.8,6.6,7.258,7.258,0,0,1-8.9,5,5.915,5.915,0,0,1-3.6-2.8,6.128,6.128,0,0,1-.6-4.6A5.051,5.051,0,0,1,26.6,17a1.328,1.328,0,0,1,.9,1.6,1.425,1.425,0,0,1-1.6.9A2.636,2.636,0,0,0,22.9,21.4Z" transform="translate(-0.048 -0.032)"/>
</svg>
