
<svg id="Calque_1" width="500" height="400"  data-name="Calque 1" xmlns="http://www.w3.org/2000/svg" viewBox="0 0 600 500">
<path 
  id="timeline-svg" 
  class="timeline__svg"
  d="M27,313.13C27,151.87,163.06,21.21,330.92,21.21,465.15,21.21,574,125.76,574,254.76c0,103.17-87,186.82-194.52,186.82-85.94,0-155.58-66.89-155.58-149.44,0-66.06,55.71-119.57,124.43-119.57,55,0,99.6,42.79,99.6,95.66a74.5,74.5,0,0,1-1.34,14c-6.75,35.44-39.23,62.46-78.28,62.46-35.18,0-63.77-27.4-63.77-61.21,0-27,22.81-48.93,50.94-48.93,22.54,0,40.77,17.5,40.77,39.22,0,17.32-14.57,31.34-32.62,31.34-14.39,0-26.11-11.27-26.11-25.11" />
</svg>
