<svg xmlns="http://www.w3.org/2000/svg" width="60" height="60" viewBox="0 0 60 60">
  <path d="M14.5194014,39.7730297 L14.5194014,37.8644068 C14.5244661,34.2834026 16.034795,31.0553957 18.4516048,28.7791695 L18.4516048,7.78305085 C18.4516048,5.06843089 20.6522391,2.86779661 23.366859,2.86779661 C24.1498092,2.86779661 24.8900031,3.05085858 25.5469736,3.3765156 C26.4077826,1.9521889 27.9710382,1 29.7566895,1 C32.4713095,1 34.6719437,3.20063428 34.6719437,5.91525424 L34.6719437,21.1578209 C35.1925151,20.9645714 35.7554999,20.8585842 36.3431302,20.8576271 C38.9871132,20.8966785 41.1210279,23.0305933 41.1600793,25.6745763 L41.1600793,27.5476514 C41.6806507,27.3544019 42.2436355,27.2484147 42.8312658,27.2474576 C44.1132313,27.2328204 45.3469641,27.7356173 46.2535097,28.6421629 C47.1600553,29.5487085 47.6628522,30.7824412 47.6482149,32.0644068 L47.6482149,38.7491525 C47.6451519,40.6298648 46.5662422,42.2581275 44.9939776,43.051449 L44.9939776,46.5152542 C44.9842315,53.4063479 39.4003255,58.9902538 32.5092319,59 L27.0041471,59 C21.5885544,58.9923407 16.9802965,55.5420137 15.2504363,50.7200821 C14.0994828,50.248603 13.1788565,49.3434864 12.6882808,48.1988095 C12.1898581,47.0358232 12.1766544,45.7219205 12.6516048,44.5491525 C13.0448251,43.6644068 13.3397404,42.6813559 13.7329607,41.7966102 C14.0023724,41.123081 14.2487109,40.4380153 14.5194014,39.7730297 Z M30.7388577,33.3423729 C30.5422476,33.3423729 30.3456374,33.440678 29.9524171,33.440678 L26.5117391,34.9152542 L23.0710611,36.3898305 C22.874451,36.4881356 22.7761459,36.4881356 22.5795357,36.5864407 C21.1937291,37.0521409 19.8972623,37.7502383 18.7456374,38.6508475 C17.9240201,39.5886408 17.3197844,40.6964062 16.9761459,41.8949153 C16.8778408,42.1898305 16.6812306,42.5830508 16.5829255,42.8779661 C16.3863154,43.3694915 16.1897052,43.8610169 15.993095,44.4508475 C15.7964849,44.8440678 15.6981798,45.2372881 15.5015696,45.6305085 C15.3049103,46.0338001 15.3049103,46.505183 15.5015696,46.9084746 C15.689974,47.2935126 16.0012774,47.6048159 16.3863154,47.7932203 C16.5720372,47.8733601 16.7744718,47.9070992 16.9761459,47.8915254 C17.6115571,47.8614823 18.1786011,47.483453 18.4507222,46.9084746 L20.4168238,42.0915254 L20.9083493,40.9118644 L22.0880103,40.420339 L31.3286883,36.4881356 C31.7137263,36.2997311 32.0250296,35.9884278 32.213434,35.6033898 C32.4100933,35.2000982 32.4100933,34.7287153 32.213434,34.3254237 C31.9853541,33.71402 31.3909535,33.3177529 30.7388577,33.3423729 Z M38.0606205,36.8760774 C37.5400491,37.069327 36.9770644,37.1753141 36.389434,37.1762712 C36.0000927,37.1756371 35.6215704,37.128896 35.2590353,37.0412158 C34.7940281,38.1647832 33.9082129,39.1147935 32.705842,39.6346254 L23.4651641,43.5668288 L21.4990624,48.3837779 C21.033792,49.5849148 20.1168482,50.518685 18.9865724,51.0208977 C19.3887085,51.7218728 19.8845309,52.3728548 20.4659449,52.9542687 C22.1995316,54.6878554 24.5516044,55.6605012 27.0032645,55.6576271 L32.5083493,55.6576271 C34.9600094,55.6605012 37.3120822,54.6878554 39.0456689,52.9542687 C40.7792555,51.2206821 41.7519013,48.8686093 41.7490272,46.4169492 L41.7490272,43.4314949 C39.6351331,42.9211354 38.0643173,41.0190077 38.0606205,38.7491525 L38.0606205,36.8760774 Z M24.8385866,6.80163182 C24.5213036,6.32649826 23.9801854,6.01355932 23.3659764,6.01355932 C22.3887133,6.01355932 21.5964849,6.80578766 21.5964849,7.78305085 L21.5964849,30.2669747 C21.1969506,30.5548749 20.8186473,30.8760797 20.4659449,31.2287821 C19.2149626,32.4797643 18.3602239,34.0528099 17.9823599,35.7529344 C19.201398,34.958383 20.5141385,34.3137853 21.8922828,33.8346254 C24.2516047,32.8515745 26.5126217,31.8685237 28.8719437,30.8854728 C29.4567809,30.6147954 30.095412,30.4803468 30.7397403,30.4922525 C31.0037187,30.4948386 31.264401,30.5178124 31.5199117,30.5599914 L31.5252984,28.5254174 L31.5252984,5.91525424 C31.5252984,4.93799105 30.73307,4.14576271 29.7558069,4.14576271 C28.7785438,4.14576271 27.9863154,4.93799105 27.9863154,5.91525424 L27.9863154,28.5254224 L27.9843493,28.5254224 L27.9843493,30.3932203 L24.8385866,30.3932203 L24.8385866,6.80163182 Z M42.8303832,30.3932203 C42.4116163,30.3878851 42.0084404,30.551885 41.7123035,30.848022 C41.4161665,31.1441589 41.2521666,31.5473348 41.2575018,31.9661017 L41.2575018,38.6508475 C41.2575018,39.5195258 41.9617048,40.2237288 42.8303832,40.2237288 C43.6990616,40.2237288 44.4032645,39.5195258 44.4032645,38.6508475 L44.4032645,31.9661017 C44.4085997,31.5473348 44.2445998,31.1441589 43.9484628,30.848022 C43.6523259,30.551885 43.2491501,30.3878851 42.8303832,30.3932203 Z M35.4694898,33.6700703 C35.7192261,33.8369684 36.0194159,33.93428 36.3423341,33.93428 C37.2110125,33.93428 37.9152154,33.230077 37.9152154,32.3613986 L37.9152154,25.6766529 C37.9205507,25.257886 37.7565507,24.8547101 37.4604137,24.5585732 C37.1642769,24.2624362 36.761101,24.0984363 36.3423341,24.1037715 C35.9187291,24.0814444 35.5055563,24.2399757 35.2056065,24.5399254 C34.9056569,24.8398751 34.7471256,25.2530479 34.7694527,25.6766529 L34.7694527,32.2445724 C34.9558273,32.4943649 35.1207687,32.7633787 35.2609782,33.0495342 C35.3453743,33.2542909 35.4147103,33.4615496 35.4694898,33.6700703 Z"/>
</svg>
