<svg xmlns="http://www.w3.org/2000/svg" width="60" height="60" viewBox="0 0 60 60">
  <path d="M5,29.8431834 C6.96228545,27.4114613 9.17268737,25.1925576 11.595092,23.2227245 C14.2954245,20.938732 17.3529061,19.1179955 20.6441718,17.8339789 C24.3240086,16.2873611 28.3349506,15.704597 32.3006135,16.1403731 C36.6175379,16.616058 40.7653882,18.0918368 44.4171779,20.4513696 C48.3594192,22.8968851 51.838602,26.0245551 54.6932515,29.6892191 C54.8466258,29.8431834 54.8466258,29.9971474 55,30.1511116 C54.386503,30.9209324 53.7730062,31.5367892 53.1595092,32.30661 C50.0154231,35.8135578 46.2765113,38.7327855 42.1165645,40.9286028 C39.1606245,42.5009968 35.9333796,43.4937953 32.6073619,43.8539219 C28.5413189,44.3007855 24.4285287,43.7185457 20.6441718,42.1603161 C15.525745,40.0480628 10.9601088,36.7818762 7.30061345,32.6145383 C6.59271452,31.8834689 5.92700785,31.1123914 5.30674849,30.3050759 C5.15337418,30.1511116 5.15337418,29.9971474 5,29.8431834 Z M36.2883435,37.8493196 C39.8159509,36.9255348 46.5644172,32.6145383 48.404908,29.9971474 C46.2576687,27.2257927 38.5889571,22.1449754 36.2883435,22.1449754 C38.6531859,24.0603376 40.0278713,26.9468695 40.0278713,29.9971474 C40.0278713,33.0474255 38.6531859,35.9339573 36.2883435,37.8493196 Z M11.595092,29.8431834 C13.7423313,32.6145383 20.6441718,37.233463 23.7116565,37.6953556 C21.3264322,35.7866238 19.9192762,32.9049844 19.8773006,29.8431834 C19.8523893,26.7657112 21.2731226,23.8562674 23.7116565,21.9910112 C19.1451173,23.6788694 15.0073122,26.3603851 11.595092,29.8431834 Z M30,33.2303948 C31.805248,33.2322678 33.2921773,31.8074671 33.3742331,29.9971474 C33.4165861,28.1264422 31.9402245,26.57547 30.0766872,26.5329538 C28.2131497,26.4904378 26.66812,27.972478 26.6257669,29.8431834 C26.6407793,31.7076107 28.1427164,33.2153246 30,33.2303948 Z"/>
</svg>
