<svg xmlns="http://www.w3.org/2000/svg" width="60" height="60" viewBox="0 0 60 60">
  <path d="M30.2000022,54.9 C27.417227,54.9018286 24.7505755,53.7847179 22.8000022,51.8 L15.1000022,44.1 C13.1152844,42.1494267 11.9981736,39.4827752 12.0000022,36.7 L12.0000022,15.5 C12.0000022,9.70101013 16.7010124,5 22.5000022,5 L37.9000022,5 C43.6989921,5 48.4000022,9.70101013 48.4000022,15.5 L48.4000022,36.8 C48.4018309,39.5827752 47.2847201,42.2494267 45.3000022,44.2 L37.6000022,51.9 C35.612854,53.8174052 32.9613683,54.8923319 30.2000022,54.9 Z M22.5000022,9.8 C21.0140573,9.7976061 19.5882841,10.3868356 18.537561,11.4375587 C17.4868379,12.4882818 16.8976083,13.9140551 16.9000022,15.4 L16.9000022,36.7 C16.914574,38.1864606 17.4854089,39.613548 18.5000022,40.7 L26.2000022,48.4 C27.2607474,49.4543778 28.7047193,50.0319666 30.2000022,50 C31.6864629,49.9854283 33.1135502,49.4145933 34.2000022,48.4 L41.9000022,40.7 C42.9543801,39.6392548 43.5319688,38.195283 43.5000022,36.7 L43.5000022,15.5 C43.5023961,14.0140551 42.9131666,12.5882818 41.8624435,11.5375587 C40.8117204,10.4868356 39.3859472,9.8976061 37.9000022,9.9 L22.5000022,9.9 L22.5000022,9.8 Z M28.0000022,38.7 L23.9000022,38.7 L23.9000022,33.9 L27.9000022,33.9 L27.9000022,23 C27.9000022,21.7534825 28.3951794,20.5580191 29.2766004,19.6765981 C30.1580213,18.7951771 31.3534847,18.3 32.6000022,18.3 L39.5000022,18.3 L39.5000022,23.1 L32.8000022,23.1 L32.8000022,34 C32.7211874,36.6012114 30.6022963,38.6759589 28.0000022,38.7 Z M23.9000022,23.6 C22.2983765,23.6 21.0000022,22.3016258 21.0000022,20.7 C21.0000022,19.0983742 22.2983765,17.8 23.9000022,17.8 C25.501628,17.8 26.8000022,19.0983742 26.8000022,20.7 C26.8000022,22.3016258 25.501628,23.6 23.9000022,23.6 Z"/>
</svg>
