<svg xmlns="http://www.w3.org/2000/svg" width="60" height="60" viewBox="0 0 60 60">
  <path d="M11.6420188,29.9743708 C13.1065102,28.1344213 14.7561757,26.4554996 16.5640629,24.9650359 C18.579373,23.2368652 20.8612304,21.8592146 23.3175653,20.8876703 C26.0638984,19.7174302 29.0573416,19.2764849 32.0169921,19.6062125 C35.2387959,19.966137 38.3344164,21.0827771 41.0598174,22.868105 C44.0019879,24.7184913 46.598569,27.0850261 48.7290489,29.8578746 C48.8435151,29.9743708 48.8435151,30.0908669 48.9579812,30.2073631 C48.5001166,30.7898439 48.0422521,31.2558286 47.5843875,31.8383094 C45.2378955,34.4918228 42.4474737,36.7006408 39.3428253,38.3620943 C37.1367504,39.5518378 34.7281954,40.3030335 32.2459244,40.5755214 C29.2113582,40.9136383 26.1419037,40.4730897 23.3175653,39.2940636 C19.4975849,37.6958384 16.0901627,35.2244957 13.3590109,32.0713017 C12.8306923,31.518142 12.3338626,30.9347103 11.8709511,30.3238593 C11.7564849,30.2073631 11.7564849,30.0908669 11.6420188,29.9743708 Z M34.9931118,36.0321711 C37.6258331,35.3331942 42.6623434,32.0713017 44.0359371,30.0908669 C42.4334111,27.9939361 36.710104,24.1495628 34.9931118,24.1495628 C36.7580392,25.5988114 37.7839934,27.7828904 37.7839934,30.0908669 C37.7839934,32.3988435 36.7580392,34.5829224 34.9931118,36.0321711 Z M16.5640629,29.9743708 C18.1665889,32.0713017 23.3175653,35.5661865 25.6068882,35.915675 C23.8267494,34.4714433 22.7765618,32.2910662 22.7452346,29.9743708 C22.7266428,27.6458179 23.7869634,25.4444028 25.6068882,24.0330666 C22.1987921,25.3101755 19.1106685,27.3391301 16.5640629,29.9743708 Z M30.3,32.5372863 C31.6472913,32.5387035 32.7570153,31.4606356 32.8182551,30.0908669 C32.849864,28.6754078 31.7480269,27.5018729 30.3572331,27.4697033 C28.9664392,27.4375338 27.8133538,28.5589116 27.7817449,29.9743708 C27.7929489,31.3850798 28.9138735,32.5258835 30.3,32.5372863 Z"/>
</svg>
